<!DOCTYPE svg PUBLIC "-//W3C//DTD SVG 20010904//EN" "http://www.w3.org/TR/2001/REC-SVG-20010904/DTD/svg10.dtd">
<svg version="1.0" xmlns="http://www.w3.org/2000/svg" width="1388px" height="741px" viewBox="0 0 13880 7410" preserveAspectRatio="xMidYMid meet">
<g id="layer1" fill="#09579a" stroke="none">
 <path d="M2719 6363 c-6 -16 -34 -77 -64 -138 -29 -60 -94 -193 -143 -295 -50 -102 -116 -239 -147 -305 -31 -66 -78 -165 -105 -220 -27 -55 -90 -185 -140 -290 -50 -104 -113 -235 -140 -290 -26 -55 -74 -154 -105 -220 -32 -66 -98 -203 -147 -305 -122 -252 -166 -343 -238 -495 -34 -71 -103 -213 -152 -315 -87 -180 -111 -229 -236 -490 -33 -69 -101 -210 -152 -315 -50 -104 -117 -242 -147 -305 -118 -246 -156 -323 -273 -563 -71 -145 -120 -257 -118 -270 l3 -22 363 -3 c363 -2 402 1 402 33 0 7 6 26 14 42 14 27 65 138 90 198 21 48 42 94 90 197 25 54 46 100 46 102 0 5 38 89 92 206 44 96 63 138 93 205 15 33 40 89 57 125 43 93 63 137 93 205 15 33 39 87 54 120 34 73 77 166 101 220 10 22 34 74 53 115 19 41 47 102 62 135 36 81 48 106 93 205 22 47 49 108 62 135 34 77 46 103 88 195 22 47 49 108 62 135 12 28 28 64 35 80 8 17 35 75 60 130 26 55 53 115 61 133 8 17 20 47 28 65 8 17 29 64 46 102 18 39 40 88 50 110 25 54 108 225 123 253 12 21 16 17 61 -75 27 -54 54 -111 62 -128 7 -16 35 -77 63 -135 43 -93 64 -137 141 -305 10 -22 38 -83 63 -135 25 -52 59 -126 77 -165 33 -72 55 -119 133 -285 25 -52 59 -126 77 -165 33 -73 58 -125 133 -285 44 -93 75 -160 138 -297 17 -38 51 -111 76 -163 24 -52 57 -122 73 -155 15 -33 38 -82 50 -110 13 -27 47 -102 77 -165 53 -112 86 -184 123 -265 10 -22 38 -83 63 -135 45 -96 83 -178 131 -282 14 -32 38 -83 52 -113 l25 -55 374 0 c242 0 376 4 380 10 4 6 -61 146 -143 313 -82 166 -189 383 -237 482 -106 220 -193 398 -410 840 -92 187 -205 419 -252 515 -207 424 -251 513 -406 830 -91 184 -211 430 -267 545 -56 116 -137 282 -180 370 -450 919 -433 884 -444 918 -8 26 -35 20 -47 -10z"/>
 <path d="M12080 4170 c-116 -18 -204 -65 -288 -154 -57 -60 -82 -106 -108 -191 -24 -83 -23 -239 4 -321 106 -336 550 -446 816 -203 97 88 141 217 134 390 l-3 74 -372 3 c-411 3 -388 -2 -359 65 18 43 60 84 121 116 45 23 61 26 155 26 117 0 166 -15 232 -73 l35 -32 64 67 63 66 -49 44 c-27 25 -70 55 -97 69 -92 47 -242 70 -348 54z m330 -609 c0 -69 -51 -139 -128 -174 -64 -29 -178 -30 -242 -1 -86 39 -149 116 -150 182 l0 22 260 0 260 0 0 -29z"/>
 <path d="M13308 4170 c-62 -11 -142 -49 -198 -93 l-45 -37 -5 58 -5 57 -105 0 -105 0 0 -670 0 -670 105 0 105 0 3 254 2 254 55 -52 c84 -79 128 -96 255 -95 124 0 187 20 278 89 272 204 248 659 -45 845 -80 51 -202 76 -295 60z m149 -226 c98 -47 157 -147 156 -269 0 -111 -41 -197 -118 -253 -54 -39 -96 -52 -170 -52 -156 0 -265 124 -265 304 0 91 21 153 70 209 84 95 206 118 327 61z"/>
 <path d="M6186 4108 c-98 -222 -486 -1212 -479 -1219 6 -6 63 -8 128 -7 l117 3 183 445 c101 245 187 451 192 458 5 8 73 -147 187 -425 98 -241 185 -448 193 -460 13 -22 20 -23 132 -23 65 0 120 3 123 6 6 6 -488 1241 -504 1262 -7 8 -46 12 -130 12 l-119 0 -23 -52z"/>
 <path d="M7105 4148 c-3 -7 -4 -227 -3 -488 l3 -475 105 0 105 0 0 485 0 485 -103 3 c-76 2 -104 -1 -107 -10z"/>
 <path d="M7950 4138 c-65 -148 -498 -1244 -494 -1250 3 -4 59 -8 125 -8 l120 0 27 63 c16 34 102 242 193 462 l164 401 186 -451 c102 -248 189 -457 193 -463 8 -14 242 -17 250 -4 3 5 -109 292 -248 638 l-253 629 -126 3 c-124 3 -127 2 -137 -20z"/>
 <path d="M8855 4148 c-3 -7 -4 -227 -3 -488 l3 -475 105 0 105 0 0 485 0 485 -103 3 c-76 2 -104 -1 -107 -10z"/>
 <path d="M10150 4138 c-27 -58 -437 -1244 -433 -1250 7 -14 229 -9 241 5 5 6 77 205 160 442 l150 429 45 -144 c25 -80 85 -271 132 -425 48 -154 91 -288 96 -297 8 -15 24 -18 103 -18 63 0 97 4 103 13 5 6 67 199 137 427 71 228 131 420 135 427 3 6 73 -182 156 -418 82 -236 154 -434 159 -439 12 -12 233 -14 239 -2 5 8 -428 1251 -441 1264 -5 5 -57 7 -117 6 l-108 -3 -131 -428 c-72 -235 -132 -424 -133 -420 -2 4 -61 197 -131 428 l-129 420 -112 3 c-107 3 -111 2 -121 -20z"/>
 <path d="M2391 3976 c-8 -10 -10 -324 -9 -1172 l3 -1159 345 0 344 0 2 1160 c2 795 -1 1164 -8 1172 -16 20 -661 19 -677 -1z"/>
 <path d="M7139 3027 c-76 -50 -88 -141 -28 -203 64 -66 134 -66 198 0 41 42 50 96 24 146 -24 46 -76 80 -123 80 -22 0 -51 -9 -71 -23z"/>
 <path d="M8903 3034 c-45 -23 -73 -71 -73 -127 0 -37 6 -53 31 -81 87 -100 239 -40 239 94 0 33 -7 48 -38 81 -31 34 -46 42 -82 45 -30 3 -56 -1 -77 -12z"/>
 <path d="M2675 1413 c-250 -59 -405 -259 -405 -524 0 -106 8 -138 63 -247 133 -265 459 -344 672 -163 53 45 111 117 134 166 55 118 54 116 55 240 0 98 -4 131 -21 181 -66 186 -181 295 -354 338 -64 16 -104 18 -144 9z"/>
 </g>
<g id="layer2" fill="#f27d2d" stroke="none">
 <path d="M2450 7254 c-209 -29 -383 -69 -522 -120 -35 -13 -57 -21 -163 -61 -36 -14 -282 -134 -323 -158 -52 -30 -208 -137 -277 -189 -100 -76 -362 -334 -447 -441 -58 -73 -128 -170 -153 -213 -5 -10 -20 -31 -32 -48 -12 -17 -27 -42 -33 -55 -6 -13 -19 -37 -30 -54 -26 -41 -88 -169 -135 -280 -16 -39 -68 -195 -88 -265 -70 -245 -101 -467 -99 -715 1 -194 22 -380 64 -555 6 -25 14 -61 18 -80 10 -46 35 -136 51 -180 31 -88 54 -146 61 -155 4 -5 8 -15 8 -23 0 -14 114 -248 145 -297 65 -103 136 -209 178 -264 84 -111 190 -232 201 -228 13 4 23 24 67 122 44 98 111 240 179 377 l59 117 -28 38 c-80 113 -211 352 -211 386 0 9 -4 18 -9 21 -8 5 -64 175 -91 274 -45 172 -62 491 -36 683 26 183 58 325 92 407 8 18 14 39 14 47 0 7 6 26 14 42 15 29 58 124 76 165 5 13 14 30 19 38 5 8 31 51 57 95 77 129 159 232 288 361 136 135 234 213 381 300 222 132 443 213 695 255 128 21 478 23 600 4 243 -39 499 -123 650 -215 8 -5 51 -30 95 -56 177 -104 372 -274 483 -419 25 -33 50 -64 57 -70 43 -38 255 -416 255 -457 0 -8 7 -23 15 -34 8 -10 15 -28 15 -39 0 -11 7 -33 15 -49 8 -15 15 -35 15 -44 0 -8 6 -38 14 -66 24 -82 44 -203 56 -321 33 -348 -28 -690 -179 -1015 -19 -40 -120 -213 -156 -266 -14 -21 -28 -48 -31 -60 -4 -15 35 -105 134 -305 77 -156 142 -292 145 -301 4 -10 11 -18 16 -18 11 0 119 122 181 205 43 57 64 88 157 230 40 62 177 335 208 415 9 25 23 60 31 78 8 18 14 39 14 47 0 8 6 29 14 47 25 58 65 227 93 388 14 85 18 160 17 390 0 293 -2 313 -50 540 -28 130 -106 384 -125 405 -5 5 -9 16 -9 24 0 16 -144 312 -171 351 -9 14 -49 75 -89 135 -40 61 -77 115 -84 120 -6 6 -37 43 -69 82 -85 107 -247 266 -372 366 -101 81 -249 187 -260 187 -3 0 -24 12 -48 27 -41 26 -238 126 -307 156 -103 45 -134 57 -146 57 -7 0 -28 6 -46 14 -35 15 -99 35 -188 59 -50 14 -125 27 -315 58 -115 18 -503 20 -625 3z"/>
 <path d="M6033 6220 c-205 -22 -313 -80 -313 -169 0 -89 102 -223 188 -249 46 -14 128 -16 136 -3 8 12 -24 39 -63 52 -24 9 -30 14 -21 23 16 16 498 14 620 -3 168 -23 339 -85 419 -151 l23 -20 -27 -36 c-62 -82 -205 -146 -396 -179 -183 -31 -428 -131 -483 -195 -34 -41 -40 -68 -32 -142 16 -153 70 -282 152 -363 101 -99 303 -182 554 -226 138 -25 446 -30 549 -10 78 15 136 43 152 73 19 36 6 150 -24 201 -32 55 -46 64 -178 116 -58 23 -143 64 -190 91 -71 42 -86 47 -98 35 -11 -11 -10 -18 8 -43 26 -38 79 -80 148 -118 29 -16 53 -33 53 -38 0 -13 -275 1 -390 19 -228 37 -414 108 -483 185 -44 48 -49 91 -14 115 12 8 103 37 201 65 434 124 643 255 679 426 31 149 -85 330 -268 419 -205 100 -606 156 -902 125z"/>
 <path d="M9925 6133 c-61 -16 -105 -87 -105 -169 0 -30 15 -92 38 -160 l37 -111 -130 123 c-151 144 -253 226 -313 255 -60 29 -117 21 -154 -21 -25 -27 -28 -38 -28 -98 0 -56 7 -84 45 -176 24 -60 41 -105 36 -100 -4 5 -23 29 -42 54 -86 113 -211 249 -255 278 -35 24 -59 32 -91 32 -38 0 -49 -5 -88 -44 -34 -35 -49 -60 -65 -115 l-22 -70 -53 63 c-163 192 -315 273 -415 221 -61 -32 -113 -131 -125 -242 l-7 -61 -46 35 c-56 43 -72 49 -147 58 -53 7 -63 12 -109 59 -131 133 -238 166 -342 107 -58 -34 -94 -77 -132 -159 -23 -50 -27 -70 -27 -158 0 -98 1 -102 42 -185 102 -203 332 -387 498 -397 111 -7 183 36 156 94 -10 23 -8 29 25 60 l37 34 -6 83 c-5 83 -34 184 -76 266 -32 61 -17 71 52 37 30 -14 60 -32 65 -39 6 -7 18 -48 27 -90 74 -358 379 -875 607 -1027 107 -71 142 -45 135 100 -11 225 -178 531 -469 863 -69 78 -78 93 -80 130 -5 146 35 217 120 217 37 0 84 -32 189 -128 65 -59 85 -84 94 -116 21 -77 120 -218 266 -376 l60 -64 69 -4 c82 -5 144 15 144 46 0 52 -157 237 -308 363 -53 44 -54 45 -59 110 -4 53 -3 67 10 72 21 8 84 -35 197 -133 143 -124 185 -166 268 -270 141 -176 241 -270 288 -270 35 0 64 45 64 99 0 54 -20 91 -140 261 -108 154 -152 242 -148 299 3 44 5 46 35 49 102 10 318 -182 507 -450 l48 -68 -75 0 c-41 0 -89 5 -106 11 -68 24 -62 -34 14 -151 79 -122 120 -145 273 -156 l101 -7 35 -57 c45 -73 113 -135 164 -151 45 -13 104 -6 122 16 15 18 6 34 -67 128 -60 78 -59 85 19 86 20 1 39 5 42 9 7 11 -48 104 -122 207 l-58 80 -88 0 -89 0 -63 110 c-83 142 -125 251 -132 338 -5 74 11 107 52 107 37 0 138 -56 231 -127 76 -58 90 -74 97 -106 25 -121 198 -352 313 -418 63 -36 142 -40 170 -9 51 56 -18 194 -181 360 -51 52 -97 108 -103 123 -26 68 -6 120 55 143 38 15 47 15 96 0 50 -14 163 -85 216 -135 12 -12 22 -32 22 -44 0 -33 60 -153 112 -223 88 -119 246 -238 357 -271 77 -22 172 -15 206 17 26 25 33 68 14 87 -8 8 -3 15 19 27 38 20 46 43 45 127 -1 71 -37 193 -79 268 -27 50 -24 64 14 55 61 -14 113 -57 138 -113 63 -142 223 -338 298 -366 73 -28 146 3 146 63 0 10 -37 61 -82 113 -140 159 -197 248 -179 278 13 21 30 6 158 -139 180 -203 408 -386 494 -397 38 -6 39 -5 59 41 12 25 24 68 27 96 6 55 3 62 -103 182 -148 169 -216 328 -138 328 76 0 222 -117 450 -361 251 -269 264 -284 264 -303 0 -27 37 -93 66 -115 29 -23 92 -28 125 -11 15 8 19 21 19 58 0 26 9 81 21 122 45 161 43 267 -8 367 -33 67 -116 159 -197 220 -89 67 -88 66 -23 60 77 -7 162 -48 270 -130 49 -37 93 -65 98 -61 5 3 9 24 9 47 0 40 -4 45 -91 122 -116 103 -196 158 -289 203 -127 62 -236 46 -345 -50 -54 -47 -93 -111 -103 -166 l-7 -40 -120 110 c-189 174 -270 218 -340 185 -62 -30 -83 -130 -47 -232 15 -43 120 -236 171 -314 15 -23 14 -24 -5 -13 -50 27 -215 199 -322 337 -65 82 -129 156 -145 165 -24 13 -30 13 -54 0 -35 -20 -72 -96 -86 -175 l-11 -63 -56 39 c-43 31 -71 42 -125 51 -67 11 -73 14 -141 78 -84 79 -160 120 -223 120 -107 0 -203 -91 -254 -242 -5 -13 -27 4 -104 80 -114 112 -192 163 -263 170 -63 6 -91 -2 -131 -35 -38 -32 -86 -129 -95 -192 -4 -25 -9 -49 -11 -54 -2 -4 -52 38 -111 93 -189 178 -322 254 -407 233z m-2236 -253 c19 -5 58 -24 87 -41 l52 -32 -5 -96 c-6 -109 11 -175 73 -289 l34 -63 -58 37 c-159 101 -250 182 -277 247 -7 18 -19 67 -26 110 -15 90 -10 106 42 124 43 15 38 15 78 3z m3709 -25 c88 -44 94 -52 82 -96 -23 -80 -3 -186 59 -311 21 -43 36 -78 34 -78 -10 0 -152 96 -209 141 -33 26 -72 65 -87 86 -23 33 -67 179 -67 224 0 26 25 50 60 59 53 12 53 12 128 -25z m1824 -123 c58 -64 71 -174 40 -344 l-7 -37 -150 155 -150 155 43 20 c27 14 55 39 79 74 l37 53 36 -18 c20 -10 52 -36 72 -58z m-4637 -487 c105 -148 209 -361 203 -418 l-3 -31 -38 34 c-89 78 -215 315 -271 510 l-15 55 40 -45 c23 -25 61 -72 84 -105z"/>
 <path d="M10917 5090 c-31 -27 -37 -39 -37 -72 0 -89 100 -208 174 -208 105 0 139 113 65 216 -44 61 -76 84 -126 91 -35 4 -45 1 -76 -27z"/>
 <path d="M3059 3378 c-5 -13 -6 -1219 -2 -1435 l6 -271 96 -63 c53 -35 101 -69 106 -75 6 -7 29 -23 52 -38 23 -14 50 -34 60 -44 10 -10 47 -40 83 -67 36 -27 67 -52 70 -56 3 -3 43 -39 90 -78 111 -95 322 -302 423 -416 227 -256 228 -257 391 -470 63 -82 125 -163 139 -179 47 -57 36 -7 -27 120 -35 71 -92 187 -126 259 -71 149 -146 304 -253 525 -41 85 -96 200 -122 255 -48 102 -78 165 -208 435 -41 85 -96 200 -122 255 -51 109 -87 183 -225 470 -129 268 -153 318 -200 420 -23 50 -68 144 -100 210 -32 66 -70 145 -84 177 -21 47 -43 78 -47 66z"/>
 <path d="M2372 3218 c-7 -7 -12 -16 -12 -20 0 -4 -14 -38 -31 -75 -17 -38 -37 -81 -44 -98 -13 -28 -66 -142 -136 -292 -50 -109 -86 -184 -149 -318 -34 -71 -74 -157 -90 -190 -49 -104 -120 -255 -182 -385 -33 -69 -73 -153 -89 -188 -16 -34 -42 -90 -58 -125 -17 -34 -54 -114 -84 -177 -30 -63 -64 -137 -77 -165 -23 -52 -70 -150 -172 -365 -33 -69 -75 -156 -93 -195 -18 -38 -61 -127 -95 -197 -61 -125 -72 -180 -24 -122 13 16 23 33 24 37 1 27 229 352 374 532 107 134 385 411 521 519 99 79 277 202 315 219 8 4 29 16 45 27 30 20 43 26 70 35 13 4 15 99 15 774 0 423 -4 772 -8 775 -5 3 -14 0 -20 -6z"/>
 </g>
<g id="layer3" fill="#fdfdfc" stroke="none">
 <path d="M2385 7404 c-144 -13 -251 -27 -260 -34 -5 -5 -32 -11 -60 -15 -27 -4 -54 -11 -60 -15 -5 -4 -29 -11 -53 -15 -24 -4 -56 -13 -70 -21 -15 -8 -34 -14 -43 -14 -15 0 -59 -18 -101 -41 -10 -5 -23 -9 -28 -9 -27 0 -404 -187 -420 -208 -7 -9 -40 -30 -67 -42 -13 -5 -23 -14 -23 -20 0 -5 -5 -10 -11 -10 -10 0 -45 -26 -101 -75 -10 -8 -21 -15 -25 -15 -16 0 -433 -399 -433 -415 0 -4 -17 -27 -37 -50 -50 -55 -76 -87 -88 -106 -5 -9 -45 -69 -89 -133 -75 -111 -105 -163 -156 -266 -54 -109 -80 -168 -80 -181 0 -8 -6 -24 -14 -35 -8 -11 -17 -37 -21 -57 -4 -21 -11 -39 -15 -42 -5 -3 -11 -23 -15 -45 -4 -22 -10 -42 -15 -45 -5 -3 -11 -24 -15 -48 -4 -23 -11 -46 -15 -52 -5 -5 -11 -37 -15 -70 -4 -33 -11 -64 -15 -70 -46 -59 -46 -1121 0 -1180 4 -5 11 -37 15 -70 4 -33 10 -64 15 -70 4 -5 11 -28 15 -50 4 -22 10 -44 15 -50 4 -5 10 -28 14 -50 6 -35 18 -67 47 -127 5 -10 9 -23 9 -29 0 -13 15 -46 90 -199 57 -117 65 -131 97 -177 13 -17 28 -42 33 -55 17 -37 34 -63 52 -81 9 -9 31 -39 49 -67 18 -27 36 -50 41 -50 4 0 8 -5 8 -11 0 -11 38 -57 120 -147 17 -18 30 -36 30 -40 0 -4 18 -25 39 -46 l39 -38 -38 -76 c-20 -43 -85 -174 -143 -293 -59 -118 -107 -220 -107 -226 0 -8 -145 -307 -226 -466 -9 -18 -14 -59 -14 -115 l0 -85 45 -44 45 -43 459 0 458 0 46 49 c25 27 54 66 63 87 11 26 18 33 21 23 2 -9 -16 -56 -40 -105 -128 -259 -177 -362 -177 -371 0 -6 -24 -59 -54 -119 -29 -60 -108 -220 -175 -355 l-121 -246 0 -83 0 -83 45 -44 45 -43 83 0 83 0 56 58 c54 54 91 106 104 144 4 10 10 18 15 18 5 0 14 11 19 25 13 33 115 188 135 205 8 7 15 19 15 26 0 8 5 14 10 14 6 0 14 8 17 18 4 9 17 31 30 47 14 17 34 43 46 58 106 136 164 202 288 326 127 126 142 140 320 283 25 20 52 37 77 48 12 5 22 14 22 19 0 5 8 12 18 15 24 9 63 32 71 43 3 4 17 14 31 22 14 8 -13 -26 -60 -75 -49 -52 -95 -110 -108 -139 -13 -27 -28 -58 -33 -69 -6 -10 -13 -52 -16 -93 -3 -40 -10 -76 -14 -79 -12 -7 -12 -201 0 -208 4 -3 11 -36 14 -73 7 -70 48 -167 98 -233 39 -51 135 -150 146 -150 5 0 17 -8 27 -18 9 -11 42 -32 74 -48 l57 -29 210 0 c226 0 211 -3 321 59 12 6 63 53 114 104 99 99 154 188 166 269 3 24 10 46 15 49 12 7 12 351 0 358 -4 3 -11 28 -15 55 -7 52 -44 131 -79 168 -11 13 -18 26 -14 29 3 3 14 -4 24 -15 9 -12 22 -21 28 -21 6 0 24 -13 40 -30 16 -16 34 -30 39 -30 6 -1 22 -14 36 -30 13 -17 28 -30 33 -30 5 0 38 -26 73 -57 87 -80 414 -403 414 -410 0 -4 27 -36 60 -72 33 -36 74 -81 90 -99 17 -18 30 -36 30 -40 0 -5 14 -21 30 -37 17 -16 30 -34 30 -40 0 -6 13 -22 30 -35 16 -14 29 -29 30 -34 0 -8 15 -28 81 -106 11 -14 35 -46 52 -73 17 -26 34 -47 39 -47 4 0 8 -6 8 -13 0 -7 22 -34 48 -60 l48 -47 91 0 91 0 41 38 41 38 0 90 0 89 -75 148 c-41 82 -75 154 -75 160 0 6 -48 108 -107 226 -239 485 -273 554 -273 565 0 6 -16 43 -36 81 l-35 70 53 -53 54 -52 450 0 450 0 42 43 42 43 0 94 0 95 -150 299 c-83 165 -150 304 -150 310 0 6 -49 107 -108 225 l-107 215 60 63 c94 99 145 159 145 171 0 7 4 12 8 12 5 0 26 27 48 60 21 33 42 60 47 60 4 0 12 10 17 23 12 27 33 60 42 67 21 16 238 452 238 478 0 8 21 58 40 93 4 9 11 37 15 63 4 25 11 48 15 51 5 3 11 24 15 48 4 23 11 47 15 52 4 6 11 40 15 77 3 37 10 70 15 73 4 3 11 54 15 115 4 61 11 113 16 116 12 7 12 631 0 638 -5 3 -12 55 -16 116 -4 61 -11 112 -15 115 -4 3 -11 32 -15 65 -4 33 -11 62 -15 65 -5 3 -12 30 -15 60 -4 31 -11 57 -15 60 -5 3 -11 23 -15 45 -4 22 -10 42 -15 45 -5 3 -11 23 -15 45 -4 22 -11 42 -16 46 -5 3 -9 12 -9 20 0 30 -174 387 -216 441 -13 17 -29 42 -34 55 -16 35 -37 70 -47 77 -14 11 -73 89 -73 98 0 5 -13 20 -30 33 -16 14 -29 30 -30 35 0 12 -399 408 -448 445 -18 14 -48 37 -66 53 -19 15 -39 27 -45 27 -6 0 -11 4 -11 8 0 10 -154 112 -169 112 -6 0 -11 4 -11 9 0 9 -320 171 -339 171 -7 0 -25 6 -39 13 -15 8 -42 21 -60 30 -19 9 -41 17 -50 17 -9 0 -29 6 -43 14 -14 7 -47 16 -72 20 -26 4 -49 11 -52 15 -2 5 -28 11 -57 15 -28 4 -57 10 -62 14 -32 21 -222 33 -581 36 -214 2 -408 2 -430 0z m690 -173 c190 -31 265 -44 315 -58 89 -24 153 -44 188 -59 18 -8 39 -14 46 -14 12 0 43 -12 146 -57 69 -30 266 -130 307 -156 24 -15 45 -27 49 -27 3 0 23 -13 44 -30 21 -16 41 -30 45 -30 23 0 234 -179 365 -310 148 -148 269 -295 365 -446 51 -80 205 -384 205 -406 0 -8 4 -18 9 -24 19 -20 97 -274 125 -404 48 -227 50 -247 50 -540 1 -230 -3 -305 -17 -390 -28 -161 -68 -330 -93 -388 -8 -18 -14 -39 -14 -47 0 -8 -6 -29 -14 -47 -8 -18 -22 -53 -31 -78 -31 -80 -168 -353 -208 -415 -95 -144 -113 -170 -124 -178 -7 -4 -13 -13 -13 -18 0 -10 -48 -75 -80 -108 -8 -9 -33 -38 -54 -64 l-39 -48 -144 292 c-102 206 -143 298 -139 313 3 12 17 39 31 60 36 53 137 226 156 266 121 259 188 551 189 825 0 153 -29 380 -66 511 -8 28 -14 58 -14 66 0 9 -7 29 -15 44 -8 16 -15 38 -15 49 0 11 -7 29 -15 39 -8 11 -15 26 -15 34 0 47 -207 410 -287 502 -17 19 -61 70 -98 113 -37 43 -106 110 -153 149 -48 40 -90 76 -93 81 -4 5 -16 14 -27 20 -11 7 -53 35 -94 62 -234 160 -495 260 -808 310 -122 19 -472 17 -600 -4 -242 -40 -517 -140 -698 -255 -23 -14 -44 -26 -47 -26 -18 0 -257 -193 -341 -276 -93 -91 -251 -290 -299 -374 -10 -19 -29 -53 -42 -75 -12 -22 -27 -50 -33 -63 -22 -50 -62 -138 -76 -165 -8 -16 -14 -35 -14 -42 0 -8 -6 -29 -14 -47 -34 -82 -66 -224 -92 -407 -26 -192 -9 -511 36 -683 27 -99 83 -269 91 -274 5 -3 9 -12 9 -21 0 -17 84 -188 123 -250 15 -24 27 -46 28 -50 0 -5 20 -35 43 -68 l42 -60 -57 -115 c-101 -205 -202 -421 -213 -457 -4 -13 -10 -23 -14 -23 -4 0 -29 28 -57 62 -27 34 -57 69 -65 78 -35 38 -80 100 -80 109 0 5 -6 14 -13 18 -13 9 -106 146 -152 228 -47 81 -135 263 -135 277 0 8 -4 18 -8 23 -7 9 -30 67 -61 155 -16 44 -41 134 -51 180 -4 19 -12 55 -18 80 -76 318 -85 680 -26 1010 23 131 54 249 107 405 31 95 40 116 81 207 14 31 31 67 36 80 5 13 26 50 45 83 19 33 39 69 45 80 6 11 19 34 30 50 11 17 23 37 27 45 12 25 150 210 205 274 60 70 231 242 299 301 91 80 260 201 361 260 41 24 287 144 323 158 106 40 128 48 163 61 139 51 313 91 522 120 122 17 510 15 625 -3z m-524 -803 c-5 -13 -30 -63 -55 -113 -25 -49 -46 -95 -46 -101 0 -6 -44 -101 -98 -210 -253 -511 -292 -591 -292 -601 0 -5 -44 -100 -98 -209 -253 -511 -292 -591 -292 -601 0 -6 -38 -86 -84 -179 -237 -480 -296 -602 -296 -612 0 -6 -11 -32 -24 -57 l-23 -46 -83 168 c-45 92 -86 175 -90 184 -5 9 -12 33 -15 53 -4 20 -11 39 -16 42 -5 2 -11 27 -15 55 -4 27 -10 52 -15 54 -4 3 -11 31 -15 63 -3 31 -12 63 -18 71 -16 20 -15 499 1 532 6 13 15 50 18 81 4 32 11 60 16 63 5 4 9 18 9 33 0 15 7 40 15 56 8 15 15 36 15 45 0 9 7 29 15 45 8 15 15 35 15 43 0 8 6 27 14 41 7 15 37 74 65 132 29 58 57 114 64 125 44 73 99 154 112 165 8 7 15 18 15 24 1 6 14 22 30 36 17 13 30 29 30 34 0 14 142 156 155 156 6 0 22 13 35 30 14 16 30 29 36 30 6 0 17 7 24 15 11 13 86 64 165 112 11 7 81 42 155 79 74 36 142 69 151 74 9 5 33 12 53 15 20 4 39 11 41 16 3 4 27 11 53 15 26 3 52 10 57 14 6 5 33 11 60 15 28 4 55 11 60 16 6 4 28 9 50 12 22 2 43 4 47 5 4 1 4 -8 -1 -20z m504 2 c6 -4 36 -11 67 -14 32 -4 60 -12 63 -17 4 -5 16 -9 28 -9 12 0 35 -7 51 -15 15 -8 36 -15 45 -15 9 0 29 -7 45 -15 15 -8 35 -15 43 -15 8 0 27 -6 41 -14 15 -8 61 -31 102 -51 79 -37 91 -44 154 -84 42 -28 73 -46 95 -57 8 -4 22 -15 32 -23 10 -9 41 -34 69 -56 60 -47 220 -202 220 -214 0 -4 14 -20 30 -36 17 -16 30 -35 30 -42 0 -8 7 -16 15 -19 8 -4 15 -12 15 -19 0 -6 9 -20 21 -31 23 -21 24 -21 123 -221 38 -76 75 -150 82 -165 8 -14 14 -33 14 -41 0 -8 7 -28 15 -43 8 -16 15 -39 15 -51 0 -12 4 -24 9 -27 5 -4 12 -30 16 -59 4 -28 11 -57 16 -62 4 -6 11 -42 15 -80 4 -39 12 -76 18 -84 14 -18 14 -384 -1 -403 -6 -7 -13 -42 -17 -77 -3 -35 -10 -69 -15 -75 -5 -6 -12 -33 -16 -61 -4 -27 -10 -54 -15 -60 -4 -5 -11 -26 -15 -45 -4 -19 -11 -41 -16 -50 -16 -28 -49 -109 -49 -118 0 -15 -62 -135 -87 -168 -13 -17 -23 -36 -23 -41 0 -6 -6 -16 -14 -22 -12 -10 -41 42 -166 296 -84 169 -227 456 -316 637 -90 181 -164 333 -164 339 0 9 -96 205 -512 1041 -81 164 -148 307 -148 317 0 10 -4 20 -9 23 -5 3 -14 20 -20 37 l-10 30 57 -7 c31 -3 62 -10 67 -14z m-110 -475 c276 -564 319 -651 425 -870 56 -115 176 -361 267 -545 155 -317 199 -406 406 -830 47 -96 160 -328 252 -515 212 -432 301 -615 410 -840 49 -99 154 -313 234 -475 80 -162 148 -298 149 -302 2 -5 -160 -8 -360 -8 l-364 0 -21 43 c-12 23 -33 69 -48 102 -44 98 -84 184 -132 285 -25 52 -53 113 -63 135 -37 81 -70 153 -123 265 -30 63 -64 138 -77 165 -12 28 -35 77 -50 110 -16 33 -49 103 -73 155 -25 52 -59 127 -77 165 -18 39 -46 99 -62 135 -17 36 -50 108 -75 160 -75 160 -100 212 -133 285 -18 39 -52 113 -77 165 -78 166 -100 213 -133 285 -18 39 -52 113 -77 165 -25 52 -53 113 -63 135 -77 168 -98 212 -141 305 -28 58 -56 119 -63 135 -60 134 -121 245 -135 245 -8 0 -97 -174 -151 -295 -10 -22 -32 -71 -50 -110 -17 -38 -38 -85 -46 -102 -8 -18 -20 -48 -28 -65 -8 -18 -35 -78 -61 -133 -25 -55 -52 -113 -60 -130 -7 -16 -23 -52 -35 -80 -13 -27 -40 -88 -62 -135 -42 -92 -54 -118 -88 -195 -13 -27 -40 -88 -62 -135 -45 -99 -57 -124 -93 -205 -15 -33 -43 -94 -62 -135 -38 -83 -76 -164 -103 -225 -10 -22 -32 -69 -48 -105 -17 -36 -42 -92 -57 -125 -30 -68 -50 -112 -93 -205 -17 -36 -42 -92 -57 -125 -30 -67 -49 -109 -93 -205 -54 -117 -92 -201 -92 -206 0 -2 -21 -48 -46 -102 -43 -93 -56 -121 -88 -194 -19 -43 -73 -162 -98 -216 l-19 -42 -360 0 c-321 0 -359 2 -359 16 0 9 54 127 121 262 116 239 154 317 272 562 30 63 97 201 147 305 51 105 119 246 152 315 125 261 149 310 236 490 49 102 118 244 152 315 72 152 116 243 238 495 49 102 115 239 147 305 31 66 79 165 105 220 27 55 90 186 140 290 50 105 113 235 140 290 27 55 74 154 105 220 31 66 96 201 144 300 49 99 117 239 152 312 l63 131 17 -36 c10 -21 92 -190 184 -377z m-125 -1539 c0 -6 24 -59 54 -118 84 -166 100 -148 -128 -148 -108 0 -196 2 -196 5 0 3 13 31 29 62 46 91 101 211 101 220 0 4 14 38 32 75 l32 67 38 -76 c21 -41 38 -80 38 -87z m240 -746 l0 -299 26 -58 c14 -32 52 -112 84 -178 32 -66 77 -160 100 -210 47 -102 71 -152 200 -420 138 -287 174 -361 225 -470 26 -55 81 -170 122 -255 130 -270 160 -333 208 -435 26 -55 81 -170 122 -255 118 -244 186 -385 253 -525 34 -72 82 -170 106 -218 24 -49 44 -90 44 -93 0 -10 -39 36 -70 82 -18 27 -38 54 -44 59 -7 6 -34 39 -60 75 -27 36 -54 70 -60 75 -6 6 -37 42 -69 82 -31 40 -69 85 -83 100 -14 15 -84 91 -155 169 -112 121 -184 191 -414 399 -22 20 -67 57 -100 83 -33 25 -64 51 -70 58 -16 17 -161 123 -258 188 -66 44 -91 56 -100 47 -8 -8 -107 -11 -338 -11 -281 0 -328 2 -333 15 -6 17 -42 20 -51 4 -4 -5 -17 -14 -28 -20 -24 -10 -27 -12 -132 -79 -239 -152 -518 -400 -711 -630 -43 -52 -86 -102 -94 -110 -17 -18 -54 -70 -152 -209 -37 -53 -73 -103 -80 -111 -7 -8 -21 -30 -31 -50 -38 -71 -46 -63 -11 10 20 41 51 107 69 145 18 39 60 126 93 195 102 215 149 313 172 365 13 28 47 102 77 165 30 63 67 143 84 177 16 35 42 91 58 125 16 35 56 119 89 188 62 130 133 281 182 385 16 33 56 119 90 190 81 171 117 247 150 320 16 33 49 105 75 160 25 55 52 114 60 130 7 17 25 57 40 90 15 33 33 73 41 89 11 23 14 102 14 398 l0 368 330 0 330 0 0 -300z m231 -267 c23 -49 66 -137 96 -197 29 -60 53 -113 53 -119 0 -10 28 -69 157 -331 29 -60 53 -113 53 -119 0 -10 42 -99 147 -311 24 -49 42 -96 41 -105 -2 -9 -23 25 -47 74 -24 50 -84 170 -133 269 -48 98 -88 183 -88 189 0 10 -71 157 -226 471 -41 81 -74 155 -74 165 0 9 -7 25 -15 35 -14 18 -21 66 -10 66 2 0 23 -39 46 -87z m-1084 -118 c-64 -130 -107 -224 -107 -233 0 -6 -20 -50 -44 -99 -104 -212 -146 -300 -146 -310 0 -6 -24 -59 -54 -119 -147 -299 -216 -443 -216 -451 0 -6 -31 -73 -68 -149 -38 -76 -95 -193 -127 -259 -32 -66 -61 -113 -63 -106 -3 8 9 43 26 78 17 35 45 91 62 126 16 34 30 68 30 74 0 7 13 39 29 70 64 131 101 210 101 220 0 6 17 46 38 89 88 179 112 231 112 241 0 6 17 46 38 89 88 179 112 231 112 241 0 6 17 46 38 89 88 179 112 231 112 241 0 6 18 46 39 89 22 44 52 106 68 139 l28 60 3 -45 c2 -26 -3 -58 -11 -75z m1663 -1129 c0 -6 -7 -2 -15 8 -8 11 -15 25 -15 30 0 6 7 2 15 -8 8 -11 15 -25 15 -30z m30 -60 c0 -6 -7 -2 -15 8 -8 11 -15 25 -15 30 0 6 7 2 15 -8 8 -11 15 -25 15 -30z m36 -73 c14 -32 43 -94 64 -138 40 -83 52 -115 45 -115 -6 0 -132 260 -140 288 -12 42 5 22 31 -35z m134 -293 c6 -11 8 -20 6 -20 -3 0 -10 9 -16 20 -6 11 -8 20 -6 20 3 0 10 -9 16 -20z m40 -84 c0 -6 -7 -2 -15 8 -8 11 -15 25 -15 30 0 6 7 2 15 -8 8 -11 15 -25 15 -30z m23 -48 c6 -22 5 -22 -8 -4 -17 22 -20 40 -6 32 5 -3 11 -16 14 -28z m27 -58 c6 -11 8 -20 6 -20 -3 0 -10 9 -16 20 -6 11 -8 20 -6 20 3 0 10 -9 16 -20z m-1298 -168 c105 -35 203 -120 256 -222 43 -81 56 -145 56 -265 -1 -122 -1 -125 -52 -235 -18 -37 -76 -116 -102 -138 -252 -216 -593 -108 -710 226 -27 77 -28 226 -1 308 27 84 41 114 76 159 79 103 156 153 290 189 34 9 127 -2 187 -22z"/>
 <path d="M5930 6265 c-190 -35 -270 -98 -270 -215 0 -105 94 -250 189 -293 25 -11 77 -21 123 -24 72 -5 81 -4 103 17 16 15 25 35 25 53 l0 30 223 -6 c171 -5 245 -11 322 -27 103 -22 222 -67 264 -99 l25 -19 -55 -35 c-73 -47 -175 -82 -311 -107 -137 -26 -261 -66 -371 -121 -144 -72 -167 -105 -167 -245 0 -307 147 -496 474 -608 192 -66 391 -91 669 -83 227 6 288 20 350 79 l40 37 -5 98 c-8 171 -50 224 -233 296 -65 26 -152 68 -192 92 -121 74 -193 60 -193 -36 0 -38 6 -53 36 -87 l35 -42 -48 6 c-270 32 -477 96 -567 174 -27 24 -34 35 -24 41 7 4 79 25 159 48 254 71 428 141 541 219 67 46 165 156 179 200 6 22 9 81 7 138 -4 128 -32 189 -133 290 -121 121 -301 190 -593 228 -154 20 -494 20 -602 1z m475 -65 c475 -46 711 -169 772 -402 32 -123 -8 -222 -123 -304 -125 -89 -290 -156 -603 -245 -184 -52 -212 -96 -124 -190 110 -118 386 -200 728 -215 102 -5 147 -4 164 5 30 16 17 31 -67 78 -66 37 -142 103 -142 124 0 6 17 1 38 -11 92 -55 162 -91 224 -114 125 -47 153 -64 177 -107 24 -42 38 -138 28 -181 -15 -57 -136 -82 -387 -81 -201 1 -336 19 -505 68 -126 36 -281 115 -338 171 -78 76 -134 220 -144 369 -4 59 -1 75 16 102 39 62 288 165 480 198 195 33 325 93 404 185 20 24 37 47 37 51 0 11 -89 74 -147 103 -71 35 -199 71 -313 87 -132 18 -596 19 -628 1 -31 -18 -24 -33 29 -59 l44 -22 -39 -1 c-96 -1 -168 46 -215 142 -34 67 -39 121 -16 155 55 78 355 121 650 93z"/>
 <path d="M9839 6153 c-58 -53 -69 -79 -69 -173 l0 -82 -67 62 c-82 75 -167 141 -210 164 -22 11 -57 16 -112 16 -71 0 -83 -3 -111 -26 -40 -34 -60 -74 -60 -121 l0 -39 -59 57 c-80 75 -117 92 -196 87 -73 -4 -119 -33 -162 -101 -15 -23 -28 -44 -30 -46 -1 -2 -34 25 -72 61 -134 128 -207 163 -320 156 -56 -3 -75 -9 -106 -32 -46 -36 -91 -105 -111 -172 l-15 -51 -37 13 c-20 7 -57 13 -81 14 -41 0 -49 5 -123 76 -87 83 -142 113 -223 121 -87 9 -151 -12 -214 -71 -104 -99 -135 -177 -135 -341 0 -126 14 -173 89 -285 58 -87 203 -226 290 -278 193 -114 435 -89 435 46 0 26 6 45 20 57 11 10 26 39 32 63 l11 44 32 -78 c129 -319 366 -659 537 -774 54 -36 66 -40 123 -40 57 0 66 3 84 26 19 24 21 40 21 143 0 146 -20 223 -99 386 -90 182 -202 343 -385 549 -54 61 -60 72 -60 114 -1 57 19 109 45 117 23 8 58 -16 159 -106 61 -54 78 -75 87 -111 6 -24 34 -77 61 -118 53 -82 232 -292 272 -322 56 -41 248 -32 297 14 58 55 14 159 -136 321 -24 26 -41 47 -38 47 16 0 106 -88 164 -161 94 -117 209 -243 262 -284 40 -31 51 -35 106 -35 54 0 64 3 87 28 15 15 28 38 30 52 l4 25 16 -31 c28 -51 108 -134 152 -156 30 -16 66 -22 139 -26 l98 -5 38 -56 c44 -64 119 -137 157 -151 14 -6 60 -10 103 -10 105 0 131 18 131 93 0 44 -5 59 -36 97 -24 31 -31 46 -22 49 31 9 48 35 48 73 0 42 -69 162 -155 271 l-45 57 -84 0 c-55 0 -87 4 -94 13 -22 27 -110 196 -135 257 -31 80 -47 144 -38 159 8 13 94 -36 192 -111 60 -45 68 -55 82 -106 23 -81 125 -233 221 -328 102 -102 129 -116 232 -122 79 -4 81 -4 117 28 35 30 37 35 37 94 0 104 -56 201 -205 356 -105 109 -119 135 -85 162 25 20 41 18 105 -14 59 -30 154 -101 155 -116 0 -31 43 -131 82 -191 24 -36 79 -103 123 -147 161 -163 314 -230 481 -209 49 6 64 13 96 45 30 30 38 45 38 75 0 25 8 47 26 68 25 30 26 35 22 137 l-3 107 55 -81 c68 -100 169 -209 214 -230 21 -10 61 -16 105 -16 64 0 73 3 106 31 27 24 35 39 35 65 l0 33 103 -80 c129 -101 185 -129 253 -129 48 0 55 3 77 33 36 48 47 91 47 183 l0 83 -63 73 c-93 107 -146 177 -169 221 l-20 39 64 -43 c70 -48 218 -193 414 -406 105 -113 134 -151 144 -187 15 -53 67 -118 109 -136 19 -7 57 -11 97 -8 85 5 114 33 114 106 0 25 12 93 26 150 22 88 26 121 22 211 -3 95 -7 114 -34 169 -17 34 -30 62 -29 62 1 0 22 -16 46 -35 50 -39 96 -46 122 -17 13 14 17 38 17 94 l0 75 -84 81 c-105 101 -227 191 -314 234 -63 31 -73 33 -177 33 -95 0 -116 -3 -157 -23 -62 -31 -142 -103 -174 -158 l-26 -44 -86 81 c-48 44 -112 97 -142 117 -51 34 -61 37 -140 40 l-86 4 -41 -45 c-35 -38 -42 -52 -48 -105 -4 -34 -4 -81 0 -104 8 -50 11 -52 -78 64 -90 116 -106 128 -177 128 -42 0 -64 -5 -83 -20 -26 -21 -77 -116 -77 -144 0 -20 -8 -20 -53 -1 -20 8 -55 15 -78 15 -37 0 -48 7 -117 71 -108 101 -155 123 -262 123 -68 0 -93 -4 -125 -21 -44 -23 -99 -78 -137 -135 l-25 -38 -29 31 c-44 47 -143 123 -194 150 -38 20 -60 24 -136 24 -84 0 -93 -2 -127 -28 -50 -38 -84 -85 -105 -145 l-18 -49 -49 44 c-109 97 -203 167 -260 195 -50 23 -73 28 -137 28 -76 0 -79 -1 -119 -37z m186 -51 c73 -25 185 -107 312 -227 61 -58 114 -102 117 -97 3 5 12 40 20 79 19 91 58 168 99 194 25 16 45 19 93 17 85 -5 155 -49 282 -176 63 -64 104 -99 107 -90 51 145 86 199 154 235 94 49 192 19 315 -97 68 -64 74 -67 141 -78 55 -9 82 -20 128 -53 32 -22 62 -38 65 -34 4 3 12 36 18 73 14 81 49 159 75 167 37 12 61 -8 174 -155 149 -191 351 -388 375 -364 5 5 -29 73 -81 164 -101 174 -123 236 -117 318 4 45 10 60 33 80 61 52 144 11 341 -168 70 -63 132 -115 138 -115 6 0 14 21 18 48 18 131 147 239 288 240 56 1 77 -4 140 -35 91 -43 173 -101 279 -193 72 -63 80 -74 80 -107 l1 -37 -87 66 c-49 37 -116 79 -150 95 -72 34 -159 46 -186 26 -16 -12 -11 -18 59 -68 140 -100 225 -216 243 -332 11 -63 1 -156 -24 -243 -10 -33 -21 -87 -24 -120 l-6 -60 -42 -3 c-23 -2 -51 2 -63 8 -22 12 -60 79 -60 106 0 20 -14 36 -274 313 -296 317 -451 423 -502 346 -15 -22 -15 -32 -5 -68 22 -73 62 -131 229 -330 41 -49 43 -55 39 -103 -3 -27 -12 -67 -21 -88 -15 -36 -18 -38 -51 -33 -80 13 -313 200 -466 376 -158 180 -180 197 -198 149 -17 -44 29 -119 177 -287 101 -116 106 -148 26 -165 -47 -10 -107 19 -161 78 -62 68 -156 207 -188 279 -20 45 -35 63 -77 91 -69 44 -100 51 -122 27 -15 -17 -15 -21 8 -62 44 -79 78 -198 79 -278 2 -77 -1 -83 -59 -117 -16 -9 -17 -14 -6 -27 8 -9 12 -28 10 -44 -5 -41 -39 -55 -130 -50 -64 3 -90 10 -150 40 -89 44 -192 128 -253 205 -54 67 -125 204 -125 239 0 45 -164 172 -258 199 -50 15 -57 15 -99 -1 -70 -27 -99 -91 -72 -162 5 -15 54 -73 108 -128 136 -140 212 -273 190 -332 -7 -20 -16 -23 -61 -23 -69 0 -136 38 -207 116 -93 101 -191 266 -191 321 0 50 -274 243 -346 243 -11 0 -33 -13 -49 -29 -26 -28 -27 -34 -23 -98 7 -89 49 -196 139 -352 l72 -124 88 6 88 7 81 -121 c44 -66 80 -124 80 -128 0 -5 -25 -12 -55 -16 -30 -3 -57 -10 -59 -14 -3 -4 22 -41 54 -83 62 -82 84 -117 77 -124 -15 -15 -82 -15 -120 0 -51 19 -85 52 -141 138 l-41 63 -105 8 c-130 10 -180 32 -231 100 -37 50 -71 113 -84 156 -6 21 -5 23 11 16 30 -13 195 -18 206 -7 18 18 -147 237 -275 370 -50 51 -158 132 -215 161 -81 41 -132 20 -132 -55 0 -54 49 -151 150 -294 118 -167 140 -208 140 -258 0 -152 -99 -99 -312 168 -102 129 -339 349 -436 407 -35 21 -40 21 -60 7 -18 -12 -22 -25 -21 -62 0 -76 17 -105 100 -171 42 -33 103 -89 135 -123 61 -67 134 -172 134 -195 0 -22 -51 -35 -124 -31 l-69 4 -50 54 c-144 159 -236 291 -256 366 -9 34 -29 58 -104 126 -155 143 -195 161 -265 118 -54 -33 -77 -103 -73 -217 1 -37 10 -52 79 -130 325 -371 507 -738 468 -947 -9 -49 -36 -48 -115 5 -215 144 -514 656 -586 1006 -19 90 -35 112 -113 150 l-53 26 -21 -20 -20 -20 22 -44 c42 -82 72 -183 77 -265 6 -86 1 -99 -53 -130 -16 -10 -17 -14 -6 -39 18 -38 7 -62 -34 -75 -66 -22 -153 -9 -246 38 -143 71 -259 188 -331 331 -41 83 -42 87 -42 185 1 83 5 110 23 151 36 80 69 120 121 149 103 55 210 20 336 -110 46 -47 55 -52 109 -59 76 -9 91 -15 150 -60 26 -20 51 -33 54 -30 4 4 12 42 18 86 14 97 54 183 98 210 49 30 116 25 189 -13 62 -33 177 -138 254 -233 29 -35 43 -46 46 -35 3 8 15 48 26 87 41 139 122 180 225 112 39 -27 116 -112 280 -313 55 -68 58 -36 8 81 -38 89 -47 121 -50 183 -5 92 11 118 75 127 76 10 166 -51 401 -274 75 -71 137 -122 142 -117 4 5 -9 61 -31 124 -52 155 -50 241 7 291 36 31 72 34 139 11z m-384 -390 c111 -74 201 -165 312 -313 l28 -37 -63 5 c-51 4 -66 2 -77 -11 -12 -14 -26 3 -122 143 -100 146 -159 251 -141 251 4 0 32 -17 63 -38z m-551 -68 c0 -2 -9 0 -20 6 -11 6 -20 13 -20 16 0 2 9 0 20 -6 11 -6 20 -13 20 -16z m70 -60 c0 -2 -9 0 -20 6 -11 6 -20 13 -20 16 0 2 9 0 20 -6 11 -6 20 -13 20 -16z"/>
 <path d="M7616 5900 c-42 -13 -76 -49 -76 -81 0 -49 30 -172 50 -204 33 -54 133 -141 245 -214 60 -39 112 -68 116 -65 5 3 -9 37 -30 77 -68 124 -84 187 -78 300 l5 97 -41 29 c-87 59 -140 76 -191 61z m107 -103 l37 -21 0 -80 c0 -45 4 -98 9 -118 5 -21 7 -38 5 -38 -3 0 -25 19 -50 42 -54 50 -77 92 -94 172 -17 83 3 92 93 43z"/>
 <path d="M11270 5900 c-37 -9 -80 -50 -80 -77 0 -8 9 -56 21 -104 16 -70 29 -100 59 -138 59 -74 305 -251 329 -237 5 4 -10 46 -35 94 -68 136 -88 237 -63 326 10 36 9 41 -13 58 -30 24 -158 88 -172 87 -6 -1 -27 -5 -46 -9z m91 -95 c27 -14 52 -31 54 -38 2 -7 5 -60 7 -119 l3 -106 -37 30 c-44 34 -82 95 -96 153 -23 92 -23 93 -5 98 10 3 19 5 21 6 1 0 25 -10 53 -24z"/>
 <path d="M13073 5775 c-35 -50 -72 -77 -134 -98 -12 -4 27 -50 152 -178 103 -105 173 -169 178 -163 5 5 15 61 22 125 17 157 6 212 -59 282 -26 27 -63 57 -84 68 l-37 19 -38 -55z m95 -78 c34 -36 52 -92 52 -159 l0 -63 -82 82 -82 83 39 40 c21 22 42 40 45 40 4 0 16 -10 28 -23z"/>
 <path d="M8445 5408 c-9 -24 56 -210 116 -329 65 -130 113 -202 173 -257 40 -37 50 -42 63 -31 26 22 10 90 -50 211 -69 140 -156 273 -235 358 -48 52 -62 62 -67 48z"/>
 <path d="M11993 4215 c-134 -36 -268 -146 -328 -269 -43 -87 -55 -149 -55 -280 0 -180 33 -270 138 -379 111 -114 204 -159 354 -172 243 -22 452 83 545 273 l38 76 4 164 c4 204 5 202 -111 202 l-80 0 66 72 c86 94 87 115 13 186 -65 61 -157 109 -246 128 -84 18 -270 17 -338 -1z m329 -81 c72 -17 141 -52 193 -97 l39 -34 -53 -56 -54 -57 -35 32 c-66 58 -115 73 -232 73 -96 0 -110 -3 -158 -28 -67 -35 -129 -99 -143 -147 -22 -74 -42 -70 371 -70 l370 0 0 -72 c0 -227 -70 -358 -234 -438 -79 -39 -161 -53 -261 -47 -200 12 -360 131 -417 311 -27 82 -28 238 -4 321 24 81 50 129 97 180 123 134 312 181 521 129z m-41 -230 c25 -8 61 -28 80 -44 l34 -29 -207 -1 c-229 0 -240 4 -149 54 86 47 142 51 242 20z"/>
 <path d="M11877 3603 c-27 -26 13 -123 73 -177 64 -58 121 -80 210 -80 63 -1 84 4 132 27 85 42 143 126 136 198 l-3 34 -271 3 c-149 1 -273 -1 -277 -5z m463 -68 c0 -4 -7 -19 -15 -34 -17 -33 -86 -70 -144 -78 -68 -9 -182 44 -211 97 -10 20 -6 20 180 20 104 0 190 -2 190 -5z"/>
 <path d="M13235 4217 c-22 -8 -59 -24 -82 -36 -32 -16 -43 -18 -43 -8 0 8 -8 21 -18 30 -15 14 -42 17 -149 17 -113 0 -132 -2 -146 -18 -16 -17 -17 -81 -17 -719 0 -665 1 -701 18 -716 15 -14 42 -17 149 -17 113 0 132 2 146 18 15 16 17 46 17 215 0 108 2 197 4 197 2 0 23 -11 48 -25 104 -58 305 -56 435 5 73 34 190 139 230 207 36 62 53 160 53 303 -1 216 -32 300 -155 420 -50 48 -95 80 -141 102 -64 30 -78 32 -189 35 -80 2 -133 -2 -160 -10z m270 -82 c199 -56 334 -281 310 -520 -18 -190 -120 -332 -283 -396 -46 -18 -78 -23 -162 -23 -96 -1 -110 2 -162 27 -36 17 -76 49 -106 83 -27 30 -52 51 -55 47 -4 -3 -7 -123 -7 -265 l0 -258 -90 0 -90 0 0 655 0 655 90 0 90 0 0 -58 c0 -32 3 -62 6 -65 4 -3 32 14 63 38 124 98 245 122 396 80z"/>
 <path d="M13280 3991 c-61 -13 -109 -42 -159 -97 -60 -65 -81 -123 -81 -220 0 -183 125 -324 285 -324 34 0 77 5 96 11 86 29 176 125 201 213 16 60 14 154 -6 213 -45 134 -205 231 -336 204z m104 -85 c89 -27 153 -101 171 -199 17 -90 -41 -205 -127 -252 -64 -35 -118 -37 -182 -5 -60 29 -99 81 -121 164 -16 58 -16 67 -1 118 27 93 72 145 152 173 49 18 51 18 108 1z"/>
 <path d="M6163 4198 c-27 -30 -523 -1267 -523 -1305 0 -56 20 -63 187 -63 142 0 150 1 170 23 11 12 89 189 172 392 84 204 155 373 159 377 4 4 77 -162 162 -369 85 -207 163 -387 173 -400 18 -22 23 -23 169 -23 123 0 155 3 169 15 15 15 17 14 22 -7 4 -13 27 -43 52 -68 l46 -45 89 0 89 0 46 45 c25 25 48 55 52 68 5 21 7 22 22 7 14 -12 46 -15 168 -15 130 0 152 2 165 18 8 9 81 177 161 372 80 195 152 369 159 387 14 32 15 29 172 -355 88 -213 166 -395 174 -404 13 -16 35 -18 165 -18 123 0 154 3 168 16 16 14 18 14 24 -6 9 -30 63 -88 96 -106 17 -8 56 -14 97 -14 60 0 74 4 108 29 55 39 75 74 81 141 7 76 -9 120 -62 169 l-45 41 -85 0 -86 0 -48 -45 c-26 -25 -52 -59 -57 -75 -8 -27 -34 33 -258 589 -136 341 -256 627 -265 635 -26 23 -306 23 -332 0 -9 -8 -129 -293 -265 -634 -244 -607 -249 -617 -260 -583 -27 79 -84 113 -187 113 -60 0 -80 -4 -107 -22 -42 -29 -70 -67 -79 -106 -5 -25 -44 66 -255 591 -137 342 -256 630 -264 640 -13 15 -35 17 -167 17 -144 0 -152 -1 -172 -22z m524 -660 c133 -332 245 -611 249 -620 6 -16 -3 -18 -103 -18 l-109 0 -173 423 c-96 232 -183 442 -193 466 -16 38 -21 43 -33 30 -8 -8 -84 -185 -170 -394 -86 -209 -170 -413 -187 -452 l-30 -73 -110 0 c-84 0 -109 3 -105 13 3 6 114 281 246 610 132 329 243 603 246 608 4 5 57 9 118 9 l112 0 242 -602z m1763 -21 l248 -618 -111 3 -111 3 -186 450 c-102 248 -189 456 -194 463 -6 10 -12 10 -19 3 -5 -5 -94 -214 -196 -463 l-187 -453 -111 -3 -111 -3 242 603 c133 332 245 611 249 621 6 16 19 17 123 15 l115 -3 249 -618z m-1174 -506 c58 -35 69 -134 21 -179 -52 -48 -114 -50 -167 -6 -80 68 -27 204 80 204 19 0 49 -9 66 -19z m1776 -20 c46 -52 33 -151 -24 -178 -43 -21 -60 -23 -99 -13 -53 14 -79 51 -79 110 0 80 48 123 130 116 34 -3 51 -11 72 -35z"/>
 <path d="M7057 4202 c-15 -17 -17 -68 -17 -529 0 -481 1 -511 18 -526 15 -14 42 -17 149 -17 113 0 132 2 146 18 15 17 17 68 17 529 0 481 -1 511 -18 526 -15 14 -42 17 -149 17 -113 0 -132 -2 -146 -18z m243 -532 l0 -470 -90 0 -90 0 0 470 0 470 90 0 90 0 0 -470z"/>
 <path d="M8817 4202 c-15 -17 -17 -68 -17 -529 0 -481 1 -511 18 -526 15 -14 42 -17 149 -17 113 0 132 2 146 18 15 17 17 68 17 529 0 481 -1 511 -18 526 -15 14 -42 17 -149 17 -113 0 -132 -2 -146 -18z m233 -532 l0 -470 -90 0 -90 0 0 470 0 470 90 0 90 0 0 -470z"/>
 <path d="M10113 4198 c-26 -29 -453 -1255 -453 -1301 0 -61 17 -67 182 -67 128 0 147 2 162 18 9 11 71 176 139 369 l122 349 109 -353 c61 -194 117 -360 126 -368 13 -12 46 -15 147 -15 111 0 132 3 146 18 8 9 64 173 123 364 59 192 109 347 110 345 2 -2 58 -158 124 -347 66 -189 128 -352 137 -362 14 -16 34 -18 163 -18 165 0 180 6 180 70 0 45 -427 1269 -453 1298 -19 21 -28 22 -155 22 -106 0 -139 -3 -152 -15 -9 -8 -63 -167 -120 -354 l-104 -339 -104 337 c-57 185 -111 344 -119 354 -14 15 -35 17 -153 17 -129 0 -138 -1 -157 -22z m265 -90 c50 -178 247 -806 257 -816 10 -11 14 -11 22 0 6 7 68 201 138 431 l128 418 100 -3 101 -3 208 -595 c115 -327 211 -605 214 -617 6 -23 5 -23 -98 -23 l-104 0 -148 428 c-82 235 -153 435 -158 445 -7 13 -13 15 -22 8 -7 -6 -73 -206 -147 -446 l-134 -435 -90 2 -90 3 -136 440 c-92 296 -141 440 -150 440 -9 0 -68 -154 -168 -442 l-155 -443 -103 0 c-57 0 -103 3 -103 7 0 5 396 1145 421 1211 8 21 14 22 108 22 l100 0 9 -32z"/>
 </g>

</svg>